<?xml version="1.0" encoding="utf-8"?>
<!-- Generator: Adobe Illustrator 28.0.0, SVG Export Plug-In . SVG Version: 6.00 Build 0)  -->
<svg version="1.1" id="Layer_1" xmlns="http://www.w3.org/2000/svg" xmlns:xlink="http://www.w3.org/1999/xlink" x="0px" y="0px"
	 viewBox="0 0 159.6 23.2" style="enable-background:new 0 0 159.6 23.2;" xml:space="preserve">
<g>
	<path d="M62,10.5l-3.4-9c0-0.1-0.1-0.2-0.2-0.2h-2.6c-0.1,0-0.2,0.1-0.2,0.2l-3.4,9c0,0.1,0,0.2,0,0.2c0.1,0.1,0.1,0.1,0.2,0.1h2.5
		c0.1,0,0.2-0.1,0.2-0.2l0.5-1.4h3l0.5,1.4c0,0.1,0.1,0.2,0.2,0.2h2.5c0.1,0,0.2,0,0.2-0.1C62.1,10.6,62.1,10.6,62,10.5L62,10.5z
		 M57.8,7h-1.4l0.7-2L57.8,7L57.8,7z"/>
	<path d="M69.1,8.3h-2.6V1.5c0-0.1-0.1-0.2-0.2-0.2h-2.3c-0.1,0-0.2,0.1-0.2,0.2v9c0,0.1,0.1,0.2,0.2,0.2h5.2c0.1,0,0.2-0.1,0.2-0.2
		v-2C69.3,8.4,69.2,8.3,69.1,8.3z"/>
	<path d="M76.5,8.3H74V1.5c0-0.1-0.1-0.2-0.2-0.2h-2.3c-0.1,0-0.2,0.1-0.2,0.2v9c0,0.1,0.1,0.2,0.2,0.2h5.2c0.1,0,0.2-0.1,0.2-0.2
		v-2C76.8,8.4,76.7,8.3,76.5,8.3z"/>
	<path d="M89.3,1.3h-6.2c-0.1,0-0.2,0.1-0.2,0.2v2c0,0.1,0.1,0.2,0.2,0.2h1.7v6.8c0,0.1,0.1,0.2,0.2,0.2h2.3c0.1,0,0.2-0.1,0.2-0.2
		V3.8h1.7c0.1,0,0.2-0.1,0.2-0.2v-2C89.6,1.4,89.5,1.3,89.3,1.3L89.3,1.3z"/>
	<path d="M96.6,3.8c0.1,0,0.2-0.1,0.2-0.2v-2c0-0.1-0.1-0.2-0.2-0.2h-5.2c-0.1,0-0.2,0.1-0.2,0.2v9.1c0,0.1,0.1,0.2,0.2,0.2h5.2
		c0.1,0,0.2-0.1,0.2-0.2v-2c0-0.1-0.1-0.2-0.2-0.2h-2.6V7.3h2.4c0.1,0,0.2-0.1,0.2-0.2V5c0-0.1-0.1-0.2-0.2-0.2h-2.4v-1L96.6,3.8
		L96.6,3.8z"/>
	<path d="M107.1,10.4L104.5,7c0.5-0.2,0.9-0.5,1.2-0.9c0.4-0.5,0.6-1.1,0.6-1.8c0-0.4-0.1-0.8-0.2-1.2c-0.1-0.4-0.3-0.7-0.6-1
		c-0.3-0.3-0.6-0.5-1-0.7c-0.4-0.2-0.9-0.2-1.4-0.2h-3.7c-0.1,0-0.2,0.1-0.2,0.2v9c0,0.1,0.1,0.2,0.2,0.2h2.3c0.1,0,0.2-0.1,0.2-0.2
		V7.9l1.8,2.8c0.1,0.1,0.1,0.1,0.2,0.1h2.9c0.1,0,0.2,0,0.2-0.1S107.2,10.5,107.1,10.4L107.1,10.4z M102,3.6h0.2
		c0.4,0,0.7,0.1,0.9,0.2c0.2,0.1,0.3,0.4,0.3,0.6s-0.1,0.5-0.3,0.6c-0.2,0.2-0.5,0.2-0.9,0.2H102V3.6L102,3.6z"/>
	<path d="M116.7,10.4L114.1,7c0.5-0.2,0.9-0.5,1.2-0.9c0.4-0.5,0.6-1.1,0.6-1.8c0-0.4-0.1-0.8-0.2-1.2c-0.1-0.4-0.3-0.7-0.6-1
		c-0.3-0.3-0.6-0.5-1-0.7c-0.4-0.2-0.9-0.2-1.4-0.2H109c-0.1,0-0.2,0.1-0.2,0.2v9c0,0.1,0.1,0.2,0.2,0.2h2.4c0.1,0,0.2-0.1,0.2-0.2
		V7.9l1.8,2.8c0.1,0.1,0.1,0.1,0.2,0.1h2.9c0.1,0,0.2,0,0.2-0.1C116.8,10.6,116.7,10.5,116.7,10.4L116.7,10.4z M111.6,3.6h0.2
		c0.4,0,0.7,0.1,0.9,0.2c0.2,0.1,0.3,0.4,0.3,0.6s-0.1,0.5-0.3,0.6c-0.2,0.2-0.5,0.2-0.9,0.2h-0.2V3.6L111.6,3.6z"/>
	<path d="M127.4,10.5l-3.4-9c0-0.1-0.1-0.2-0.2-0.2h-2.6c-0.1,0-0.2,0.1-0.2,0.2l-3.4,9c0,0.1,0,0.2,0,0.2s0.1,0.1,0.2,0.1h2.5
		c0.1,0,0.2-0.1,0.2-0.2l0.5-1.4h3l0.5,1.4c0,0.1,0.1,0.2,0.2,0.2h2.5c0.1,0,0.2,0,0.2-0.1S127.4,10.6,127.4,10.5L127.4,10.5z
		 M123.1,7h-1.4l0.7-2L123.1,7L123.1,7z"/>
	<path d="M129.3,1.3h2.4c0.1,0,0.2,0.1,0.2,0.2v9c0,0.1-0.1,0.2-0.2,0.2h-2.4c-0.1,0-0.2-0.1-0.2-0.2v-9
		C129,1.4,129.1,1.3,129.3,1.3z"/>
	<path d="M143.6,1.3h-2.3c-0.1,0-0.2,0.1-0.2,0.2v4.8l-3.9-5c-0.1-0.1-0.1-0.1-0.2-0.1h-2.4c-0.1,0-0.2,0.1-0.2,0.2v9.1
		c0,0.1,0.1,0.2,0.2,0.2h2.4c0.1,0,0.2-0.1,0.2-0.2V5.8l3.9,5c0.1,0.1,0.1,0.1,0.2,0.1h2.3c0.1,0,0.2-0.1,0.2-0.2v-9
		C143.9,1.4,143.8,1.3,143.6,1.3z"/>
	<path d="M60.9,22.4L58.3,19c0.5-0.2,0.9-0.5,1.2-0.9c0.4-0.5,0.6-1.1,0.6-1.8c0-0.4-0.1-0.8-0.2-1.2c-0.1-0.4-0.3-0.7-0.6-1
		c-0.3-0.3-0.6-0.5-1-0.7c-0.4-0.2-0.9-0.2-1.4-0.2h-3.7c-0.1,0-0.2,0.1-0.2,0.2v9.1c0,0.1,0.1,0.2,0.2,0.2h2.3
		c0.1,0,0.2-0.1,0.2-0.2v-2.6l1.8,2.8c0.1,0.1,0.1,0.1,0.2,0.1h2.9c0.1,0,0.2,0,0.2-0.1C61,22.6,61,22.5,60.9,22.4L60.9,22.4z
		 M55.8,15.6H56c0.4,0,0.7,0.1,0.9,0.2c0.2,0.1,0.3,0.3,0.3,0.6s-0.1,0.5-0.3,0.6c-0.2,0.2-0.5,0.2-0.9,0.2h-0.2V15.6L55.8,15.6z"/>
	<path d="M62.8,13.3h2.3c0.1,0,0.2,0.1,0.2,0.2v9.1c0,0.1-0.1,0.2-0.2,0.2h-2.3c-0.1,0-0.2-0.1-0.2-0.2v-9.1
		C62.5,13.4,62.6,13.3,62.8,13.3z"/>
	<path d="M75.9,16.2c-0.2-0.6-0.6-1.1-1-1.5c-0.4-0.4-0.9-0.8-1.5-1c-0.6-0.3-1.2-0.4-1.8-0.4h-3.5c-0.1,0-0.2,0.1-0.2,0.2v9.1
		c0,0.1,0.1,0.2,0.2,0.2h3.5c0.7,0,1.3-0.1,1.8-0.4c0.6-0.3,1.1-0.6,1.5-1s0.8-1,1-1.5c0.2-0.6,0.4-1.2,0.4-1.8S76.2,16.8,75.9,16.2
		L75.9,16.2z M70.7,15.8H71c0.4,0,0.7,0.1,1,0.2c0.3,0.1,0.5,0.3,0.7,0.5c0.2,0.2,0.3,0.4,0.4,0.7c0.1,0.3,0.2,0.6,0.2,0.9
		s-0.1,0.7-0.2,0.9c-0.1,0.3-0.2,0.5-0.4,0.7S72.3,20,72,20.2c-0.3,0.1-0.6,0.2-1,0.2h-0.3L70.7,15.8L70.7,15.8z"/>
	<path d="M83.8,15.8c0.1,0,0.2-0.1,0.2-0.2v-2c0-0.1-0.1-0.2-0.2-0.2h-5.2c-0.1,0-0.2,0.1-0.2,0.2v9.1c0,0.1,0.1,0.2,0.2,0.2h5.2
		c0.1,0,0.2-0.1,0.2-0.2v-2c0-0.1-0.1-0.2-0.2-0.2h-2.6v-1.1h2.4c0.1,0,0.2-0.1,0.2-0.2v-2c0-0.1-0.1-0.2-0.2-0.2h-2.4v-1L83.8,15.8
		L83.8,15.8z"/>
	<path d="M97.9,14.1c-0.6-0.6-1.4-0.9-2.5-0.9h-3.7c-0.1,0-0.2,0.1-0.2,0.2v9.1c0,0.1,0.1,0.2,0.2,0.2H94c0.1,0,0.2-0.1,0.2-0.2
		v-2.8h1.1c1.1,0,1.9-0.3,2.5-0.9c0.6-0.6,0.9-1.4,0.9-2.4S98.5,14.7,97.9,14.1L97.9,14.1z M94.3,15.7h0.5c0.9,0,1.1,0.5,1.1,0.9
		s-0.1,0.9-1.1,0.9h-0.5C94.3,17.4,94.3,15.7,94.3,15.7z"/>
	<path d="M106.1,20.3h-2.6v-6.8c0-0.1-0.1-0.2-0.2-0.2h-2.3c-0.1,0-0.2,0.1-0.2,0.2v9.1c0,0.1,0.1,0.2,0.2,0.2h5.2
		c0.1,0,0.2-0.1,0.2-0.2v-2C106.3,20.4,106.2,20.3,106.1,20.3z"/>
	<path d="M117.6,22.5l-3.4-9.1c0-0.1-0.1-0.2-0.2-0.2h-2.6c-0.1,0-0.2,0.1-0.2,0.2l-3.4,9.1c0,0.1,0,0.2,0,0.2
		c0.1,0.1,0.1,0.1,0.2,0.1h2.5c0.1,0,0.2-0.1,0.2-0.2l0.5-1.4h3l0.5,1.4c0,0.1,0.1,0.2,0.2,0.2h2.5c0.1,0,0.2,0,0.2-0.1
		S117.6,22.6,117.6,22.5L117.6,22.5z M113.3,19h-1.4l0.7-2L113.3,19L113.3,19z"/>
	<path d="M128.5,13.3h-2.3c-0.1,0-0.2,0.1-0.2,0.2v4.8l-3.9-5c-0.1-0.1-0.1-0.1-0.2-0.1h-2.4c-0.1,0-0.2,0.1-0.2,0.2v9.1
		c0,0.1,0.1,0.2,0.2,0.2h2.4c0.1,0,0.2-0.1,0.2-0.2v-4.8l3.9,5c0.1,0.1,0.1,0.1,0.2,0.1h2.3c0.1,0,0.2-0.1,0.2-0.2v-9.1
		C128.7,13.4,128.6,13.3,128.5,13.3z"/>
	<path d="M140.5,13.3h-2.3c-0.1,0-0.2,0.1-0.2,0.2v4.8l-3.9-5c-0.1-0.1-0.1-0.1-0.2-0.1h-2.4c-0.1,0-0.2,0.1-0.2,0.2v9.1
		c0,0.1,0.1,0.2,0.2,0.2h2.4c0.1,0,0.2-0.1,0.2-0.2v-4.8l3.9,5c0.1,0.1,0.1,0.1,0.2,0.1h2.3c0.1,0,0.2-0.1,0.2-0.2v-9.1
		C140.7,13.4,140.6,13.3,140.5,13.3z"/>
	<path d="M148.6,15.8c0.1,0,0.2-0.1,0.2-0.2v-2c0-0.1-0.1-0.2-0.2-0.2h-5.1c-0.1,0-0.2,0.1-0.2,0.2v9.1c0,0.1,0.1,0.2,0.2,0.2h5.1
		c0.1,0,0.2-0.1,0.2-0.2v-2c0-0.1-0.1-0.2-0.2-0.2h-2.6v-1.1h2.4c0.1,0,0.2-0.1,0.2-0.2v-2c0-0.1-0.1-0.2-0.2-0.2h-2.4v-1
		L148.6,15.8L148.6,15.8z"/>
	<path d="M159.1,22.4l-2.6-3.4c0.5-0.2,0.9-0.5,1.2-0.9c0.4-0.5,0.6-1.1,0.6-1.8c0-0.4-0.1-0.8-0.2-1.2c-0.1-0.4-0.3-0.7-0.6-1
		c-0.3-0.3-0.6-0.5-1-0.7c-0.4-0.2-0.9-0.2-1.4-0.2h-3.7c-0.1,0-0.2,0.1-0.2,0.2v9.1c0,0.1,0.1,0.2,0.2,0.2h2.4
		c0.1,0,0.2-0.1,0.2-0.2v-2.6l1.8,2.8c0.1,0.1,0.1,0.1,0.2,0.1h2.9c0.1,0,0.2,0,0.2-0.1C159.2,22.6,159.2,22.5,159.1,22.4
		L159.1,22.4z M154,15.6h0.2c0.4,0,0.7,0.1,0.9,0.2c0.2,0.1,0.3,0.3,0.3,0.6s-0.1,0.5-0.3,0.6c-0.2,0.2-0.5,0.2-0.9,0.2H154V15.6
		L154,15.6z"/>
	<path d="M47.3,11.9L47,11.7c-1.2-1-2.5-2-5.2-2s-4,1.1-5.2,2c-1.1,0.9-1.9,1.5-3.8,1.5s-2.7-0.7-3.8-1.5c-1.2-1-2.5-2-5.2-2
		s-4,1.1-5.2,2c-1.1,0.9-1.9,1.5-3.8,1.5s-2.7-0.7-3.8-1.5c-1.2-1-2.5-2-5.2-2s-4,1.1-5.2,2l-0.2,0.2c-0.1,0.1-0.2,0.3-0.2,0.5v1.3
		c0,0.2,0.1,0.4,0.3,0.5c0.2,0.1,0.5,0.1,0.6,0c0.3-0.2,0.6-0.5,0.9-0.7c1.1-0.9,1.9-1.5,3.8-1.5s2.7,0.7,3.8,1.5c1.2,1,2.5,2,5.2,2
		s4-1.1,5.2-2c1.1-0.9,1.9-1.5,3.8-1.5s2.7,0.7,3.8,1.5c1.2,1,2.5,2,5.2,2s4-1.1,5.2-2c1.1-0.9,1.9-1.5,3.8-1.5s2.7,0.7,3.8,1.5
		c0.3,0.2,0.6,0.5,0.9,0.7c0.2,0.1,0.4,0.2,0.6,0c0.2-0.1,0.3-0.3,0.3-0.5v-1.3C47.5,12.2,47.4,12,47.3,11.9L47.3,11.9z"/>
	<path d="M1.1,20.6h45.8c0.3,0,0.6,0.3,0.6,0.6v1c0,0.3-0.3,0.6-0.6,0.6H1.1c-0.3,0-0.6-0.3-0.6-0.6v-1C0.5,20.9,0.7,20.6,1.1,20.6z
		"/>
	<path d="M47.1,2.4l-3.9-1.8c-0.9-0.4-1.9-0.4-2.8,0l-7.1,3.2c-0.3,0.1-0.6,0.1-0.9,0l-7.1-3.2c-0.9-0.4-1.9-0.4-2.8,0l-7.1,3.2
		c-0.3,0.1-0.6,0.1-0.9,0L7.5,0.7c-0.9-0.4-1.9-0.4-2.8,0L0.8,2.4C0.6,2.5,0.5,2.8,0.5,3v1.1c0,0.2,0.1,0.4,0.3,0.5
		c0.2,0.1,0.4,0.1,0.6,0l4.3-2c0.3-0.1,0.6-0.1,0.9,0l7.1,3.2c0.9,0.4,1.9,0.4,2.8,0l7.1-3.2c0.3-0.1,0.6-0.1,0.9,0l7.1,3.2
		c0.4,0.2,0.9,0.3,1.4,0.3s1-0.1,1.4-0.3l7.1-3.2c0.3-0.1,0.6-0.1,0.9,0l4.3,2c0.2,0.1,0.4,0.1,0.6,0s0.3-0.3,0.3-0.5V3
		C47.5,2.7,47.3,2.5,47.1,2.4z"/>
</g>
</svg>
